<svg width="133" height="20" viewBox="0 0 133 20" fill="none" xmlns="http://www.w3.org/2000/svg">
<path d="M4.55144 19.5L6.17644 12.475L0.72644 7.75L7.92644 7.125L10.7264 0.5L13.5264 7.125L20.7264 7.75L15.2764 12.475L16.9014 19.5L10.7264 15.775L4.55144 19.5Z" fill="#1C1B1F"/>
<path d="M32.5514 19.5L34.1764 12.475L28.7264 7.75L35.9264 7.125L38.7264 0.5L41.5264 7.125L48.7264 7.75L43.2764 12.475L44.9014 19.5L38.7264 15.775L32.5514 19.5Z" fill="#1C1B1F"/>
<path d="M60.5514 19.5L62.1764 12.475L56.7264 7.75L63.9264 7.125L66.7264 0.5L69.5264 7.125L76.7264 7.75L71.2764 12.475L72.9014 19.5L66.7264 15.775L60.5514 19.5Z" fill="#1C1B1F"/>
<path d="M88.5514 19.5L90.1764 12.475L84.7264 7.75L91.9264 7.125L94.7264 0.5L97.5264 7.125L104.726 7.75L99.2764 12.475L100.901 19.5L94.7264 15.775L88.5514 19.5Z" fill="#1C1B1F"/>
<path d="M122.726 13.425L125.876 15.35L125.051 11.75L127.826 9.35L124.176 9.025L122.726 5.625V13.425ZM116.551 19.5L118.176 12.475L112.726 7.75L119.926 7.125L122.726 0.5L125.526 7.125L132.726 7.75L127.276 12.475L128.901 19.5L122.726 15.775L116.551 19.5Z" fill="#1C1B1F"/>
</svg>
