<svg width="100" height="100" viewBox="0 0 100 100" fill="none" xmlns="http://www.w3.org/2000/svg">
<g clip-path="url(#clip0_509_18)">
<path d="M50.1979 96.9119C76.1247 96.9119 97.1425 75.8941 97.1425 49.9674C97.1425 24.0406 76.1247 3.02283 50.1979 3.02283C24.2712 3.02283 3.25342 24.0406 3.25342 49.9674C3.25342 75.8941 24.2712 96.9119 50.1979 96.9119Z" fill="white"/>
<path d="M49.9998 80.6731C66.7146 80.6731 80.2647 67.1231 80.2647 50.4082C80.2647 33.6933 66.7146 20.1433 49.9998 20.1433C33.2849 20.1433 19.7349 33.6933 19.7349 50.4082C19.7349 67.1231 33.2849 80.6731 49.9998 80.6731Z" fill="#151515"/>
<path d="M68.9127 53.6841C68.927 52.5758 68.9413 51.4655 68.9127 50.3552C68.8923 49.3401 68.8556 48.3263 68.8025 47.314C68.7617 46.5139 68.7515 45.6587 68.1535 45.0423C67.6044 44.4769 66.737 44.4014 65.9491 44.3605C63.2365 44.2177 60.528 44.2013 57.8114 44.1932C55.6873 44.1932 53.5619 44.1932 51.4351 44.1932H51.2187C49.8084 44.1932 48.3919 44.1524 46.9815 44.1932C45.8201 44.2258 44.6485 44.134 43.4892 44.1932C43.2708 44.2054 43.0524 44.2218 42.834 44.2462C41.6318 44.3789 40.8562 44.9137 40.2031 45.9097C39.55 46.9058 39.156 48.0161 38.3049 48.8346C37.7212 49.3959 36.8762 49.5551 36.0863 49.5183C35.1029 49.4677 34.1555 49.1323 33.3594 48.5529C32.6654 48.0447 31.9307 47.9263 31.0693 48.0549C29.759 48.259 28.7548 49.6285 28.7241 50.8858C28.7109 51.6014 28.9554 52.2979 29.4128 52.8483C29.8703 53.3987 30.5104 53.7663 31.2163 53.8842C32.3225 54.0474 33.3553 53.3902 34.3718 52.9228C35.6352 52.3411 37.2415 51.9839 38.3131 53.0963C38.9825 53.7923 39.2867 54.7475 39.603 55.6395C39.8099 56.2543 40.1488 56.8164 40.5958 57.2864C41.0429 57.7564 41.5874 58.1229 42.1911 58.3602C42.3601 58.4252 42.5325 58.481 42.7075 58.5276C43.8137 58.8215 44.9527 58.7317 46.0895 58.7174C47.3251 58.6943 48.5606 58.6793 49.7961 58.6725C52.2454 58.6562 54.6947 58.6494 57.144 58.6521H64.3795C65.2633 58.6521 66.2042 58.7541 67.0758 58.6521C67.5424 58.6298 67.9845 58.4371 68.3186 58.1106C68.6526 57.7841 68.8553 57.3464 68.8882 56.8804C68.928 56.3813 68.9321 55.88 68.9005 55.3803C68.8964 54.8149 68.9066 54.2536 68.9127 53.6841ZM31.5184 52.0207C31.3112 52.0206 31.1086 51.959 30.9365 51.8437C30.7644 51.7283 30.6305 51.5643 30.5518 51.3727C30.473 51.181 30.4531 50.9703 30.4944 50.7672C30.5357 50.5642 30.6365 50.378 30.7839 50.2324C30.9312 50.0867 31.1186 49.9882 31.3221 49.9492C31.5256 49.9103 31.7361 49.9327 31.9268 50.0137C32.1176 50.0947 32.2799 50.2305 32.3933 50.404C32.5066 50.5775 32.5658 50.7807 32.5634 50.9879C32.5607 51.2631 32.4493 51.5261 32.2536 51.7195C32.0578 51.913 31.7936 52.0212 31.5184 52.0207Z" fill="white"/>
<path d="M12.479 63.8894L13.1546 63.6568L13.4301 64.118L16.6673 63.0077L16.602 62.4729L17.2816 62.2403L17.4531 62.7383L18.0838 64.5752C18.209 64.9156 18.2571 65.2795 18.2246 65.6407C18.1947 65.9486 18.0779 66.2416 17.8878 66.4857C17.6876 66.7218 17.4274 66.8995 17.1346 67.0001C16.8419 67.1006 16.5274 67.1204 16.2244 67.0572C15.9266 66.9804 15.6568 66.8204 15.4467 66.5959C15.2003 66.3299 15.0156 66.0128 14.9058 65.6672L14.6834 64.9875L13.8281 65.2753L13.8935 65.8101L13.2179 66.0407L12.479 63.8894ZM15.561 64.6834L15.7937 65.3611C15.8159 65.4584 15.859 65.5497 15.92 65.6286C15.9811 65.7076 16.0585 65.7723 16.1471 65.8184C16.2356 65.8644 16.3331 65.8906 16.4328 65.8951C16.5325 65.8997 16.632 65.8825 16.7244 65.8448C16.9186 65.7872 17.0826 65.6561 17.1816 65.4794C17.2286 65.3847 17.2544 65.2808 17.2573 65.1751C17.2601 65.0693 17.2398 64.9642 17.1979 64.8671L16.9653 64.1874L15.561 64.6834Z" fill="#151515"/>
<path d="M14.5444 69.3575L15.1812 69.033L15.5201 69.4534L18.5613 67.9083L18.4225 67.3879L19.0634 67.0633L20.0839 69.0901L19.443 69.4167L19.1042 68.9962L16.0548 70.5474L16.1936 71.0679L15.5731 71.3985L14.5444 69.3575Z" fill="#151515"/>
<path d="M16.2876 72.6946L16.9183 72.266L21.0474 72.3293L20.3269 71.272L19.7431 71.5598L19.2267 70.8005L20.5738 69.9657L22.6884 73.0743L22.0761 73.4825L17.9225 73.4396L18.7797 74.699L19.3329 74.4397L19.8472 75.197L18.5185 75.9767L16.2876 72.6946Z" fill="#151515"/>
<path d="M19.5005 77.1972L20.0618 76.6788L24.1541 76.1359L23.2867 75.1949L22.7519 75.5664L22.1396 74.8908L23.3479 73.8703L25.8972 76.6339L25.3563 77.1339L21.2374 77.6932L22.2702 78.8137L22.7805 78.4749L23.3928 79.1464L22.1947 80.1159L19.5005 77.1972Z" fill="#151515"/>
<path d="M23.2559 81.1242L23.7049 80.5691L24.1845 80.814L26.3379 78.1606L25.9991 77.7422L26.4522 77.185L29.6036 79.7383L28.681 80.8752L27.9626 80.2935L28.2708 79.869L27.2196 79.0178L26.5624 79.8343L27.8238 80.8548L27.2319 81.5855L25.9725 80.565L25.2112 81.5059L26.3134 82.3999L26.6808 81.9917L27.389 82.5673L26.4501 83.7266L23.2559 81.1242Z" fill="#151515"/>
<path d="M27.8076 84.6818L28.1689 84.0695L28.6792 84.2409L30.412 81.2895L30.014 80.9262L30.3794 80.3037L32.5327 81.5671C32.85 81.7402 33.128 81.9772 33.3491 82.2631C33.5299 82.4994 33.6384 82.783 33.6614 83.0796C33.6783 83.3768 33.6027 83.672 33.445 83.9246C33.2974 84.1792 33.079 84.3856 32.8164 84.5185C32.5429 84.6587 32.2376 84.7255 31.9306 84.7124C31.5958 84.6992 31.2702 84.5993 30.9856 84.4226L30.2589 83.9838L29.7466 84.8594L30.1446 85.2227L29.7813 85.835L27.8076 84.6818ZM30.5814 86.3146L30.9896 84.2593L32.0918 84.4859L31.8632 86.0942L32.2163 86.4432L31.8571 87.0556L30.5814 86.3146ZM30.7243 83.1755L31.3815 83.5613C31.5446 83.6708 31.7417 83.7179 31.9367 83.6939C32.0241 83.675 32.1061 83.6368 32.1767 83.5821C32.2474 83.5273 32.3048 83.4574 32.3449 83.3776C32.3971 83.2972 32.4325 83.2072 32.449 83.1128C32.4655 83.0185 32.4627 82.9218 32.4408 82.8285C32.4106 82.7316 32.3612 82.6418 32.2957 82.5643C32.2301 82.4868 32.1497 82.4233 32.0592 82.3774L31.4203 81.9958L30.7243 83.1755Z" fill="#151515"/>
<path d="M33.106 87.6107L33.3917 86.9555L33.9183 87.0637L35.2817 83.9246L34.8429 83.6123L35.1287 82.953L37.2146 83.8592L36.9289 84.5185L36.4023 84.4103L35.0388 87.5495L35.4777 87.8618L35.1919 88.517L33.106 87.6107ZM35.6552 82.7836L36.7003 82.1978L37.8453 82.6958V82.7183L36.5799 83.1836L35.6797 82.7918L35.6552 82.7836Z" fill="#151515"/>
<path d="M35.8696 88.8497L36.0737 88.1679L36.4289 88.221L39.1455 84.5471L40.413 84.9369L40.5906 89.5048L40.9151 89.66L40.711 90.3417L38.8986 89.7824L39.1027 89.1007L39.4374 89.1374L39.4537 88.5659L37.8944 88.0843L37.5923 88.568L37.8903 88.7252L37.6862 89.4089L35.8696 88.8497ZM38.4006 87.3433L39.4619 87.6699L39.4435 86.0554V85.8677H39.4252L39.3109 86.0371L38.4006 87.3433Z" fill="#151515"/>
<path d="M44.7114 91.0908L44.7604 90.3784L45.1196 90.3519L46.9321 86.1555L48.2547 86.2473L49.4692 90.654L49.8202 90.7315L49.7712 91.4439L47.8771 91.3132L47.9281 90.5989L48.2629 90.5601L48.1486 89.9988L46.5157 89.8865L46.33 90.4254L46.6566 90.5111L46.6076 91.2234L44.7114 91.0908ZM46.8321 89.0497L47.9424 89.1272L47.5546 87.5577L47.5118 87.376H47.4914L47.4179 87.5658L46.8321 89.0497Z" fill="#151515"/>
<path d="M51.1879 91.401L51.1328 90.6886L51.6491 90.5356L51.3838 87.1249L50.8511 87.0535L50.7939 86.335L53.284 86.1309C53.641 86.0954 54.0014 86.1329 54.3434 86.2412C54.6271 86.331 54.8783 86.502 55.0659 86.7331C55.2492 86.9674 55.3561 87.2524 55.3721 87.5495C55.3953 87.843 55.3337 88.1371 55.1945 88.3965C55.0507 88.6671 54.8399 88.8962 54.5822 89.0619C54.2988 89.2416 53.9742 89.3456 53.6392 89.364L52.7942 89.4191L52.8718 90.4396L53.4065 90.509L53.4616 91.2234L51.1879 91.401ZM52.7187 88.4945L53.4759 88.4353C53.6729 88.434 53.8629 88.3615 54.0107 88.2312C54.0712 88.1658 54.1164 88.0877 54.1429 88.0026C54.1694 87.9175 54.1765 87.8275 54.1637 87.7393C54.1605 87.6435 54.138 87.5494 54.0977 87.4624C54.0574 87.3755 54 87.2975 53.929 87.2331C53.849 87.1704 53.7571 87.1246 53.6589 87.0983C53.5607 87.072 53.4582 87.0658 53.3575 87.08L52.6125 87.1392L52.7187 88.4945ZM54.3944 91.1479L53.5596 89.2252L54.5924 88.7823L55.3251 90.2396L55.8129 90.3233L55.868 91.0336L54.3944 91.1479Z" fill="#151515"/>
<path d="M58.2641 90.6172L58.113 89.9171L58.609 89.6967L57.913 86.4677L57.1456 86.633L57.2293 87.176L56.3271 87.3699L56.0107 85.9064L60.6256 84.9124L60.9399 86.3759L60.0255 86.58L59.8826 86.0493L59.1091 86.2167L59.8051 89.4456H60.348L60.497 90.1437L58.2641 90.6172Z" fill="#151515"/>
<path d="M62.9771 89.4946L62.7301 88.8231L63.1873 88.5374L62.0076 85.3247L61.4749 85.4002L61.2197 84.7267L65.0284 83.3286L65.5345 84.7042L64.665 85.0226L64.4609 84.5409L63.1914 85.0083L63.5506 85.986L65.0733 85.4268L65.3957 86.3085L63.8731 86.8678L64.2915 88.0026L65.6284 87.5229L65.4651 86.9984L66.3224 86.6841L66.8367 88.0842L62.9771 89.4946Z" fill="#151515"/>
<path d="M70.3231 86.4228C70.0005 86.6024 69.658 86.7435 69.3026 86.8433C68.9574 86.9273 68.6 86.9487 68.2473 86.9066L67.6187 85.7473L68.4515 85.2962L68.8597 85.8432C69.0061 85.8824 69.1602 85.8824 69.3067 85.8432C69.5103 85.7997 69.7064 85.7261 69.8884 85.6248C70.0072 85.5656 70.1144 85.4854 70.2047 85.388C70.273 85.3159 70.3178 85.2248 70.3333 85.1268C70.344 85.0318 70.324 84.936 70.2762 84.8533C70.2333 84.7674 70.1658 84.6964 70.0823 84.6492C69.9824 84.5978 69.8721 84.5699 69.7598 84.5675C69.5892 84.5617 69.4185 84.5706 69.2495 84.5941C68.873 84.6712 68.4906 84.717 68.1065 84.7308C67.8338 84.7457 67.5616 84.6923 67.3146 84.5757C67.0855 84.4515 66.9003 84.2598 66.7839 84.0266C66.6537 83.7948 66.6048 83.5261 66.6451 83.2633C66.6934 82.9864 66.813 82.7268 66.9921 82.5101C67.2012 82.2533 67.4584 82.0397 67.7493 81.8815C68.0675 81.6958 68.4114 81.5583 68.7699 81.4733C69.0786 81.4031 69.3977 81.3913 69.7108 81.4386L70.2945 82.5142L69.4965 82.9469L69.0474 82.4162C68.9289 82.4248 68.8117 82.4474 68.6984 82.4836C68.5475 82.5269 68.4017 82.5864 68.2637 82.6612C68.1502 82.7215 68.0468 82.7993 67.9575 82.8918C67.8841 82.9673 67.8319 83.061 67.8065 83.1633C67.7869 83.2633 67.8043 83.367 67.8555 83.4551C67.8964 83.532 67.9617 83.593 68.0412 83.6286C68.1532 83.6708 68.2728 83.6889 68.3923 83.6817C68.5972 83.6748 68.8016 83.6571 69.0046 83.6286C69.4815 83.5076 69.9781 83.4854 70.4639 83.5633C70.6554 83.6049 70.8348 83.6896 70.9887 83.8109C71.1425 83.9322 71.2667 84.0869 71.3518 84.2634C71.4896 84.5015 71.5421 84.7793 71.5008 85.0513C71.4506 85.3297 71.3234 85.5885 71.1334 85.7983C70.9031 86.0535 70.6286 86.2651 70.3231 86.4228Z" fill="#151515"/>
<path d="M73.2619 84.6655L72.8231 84.1001L73.07 83.8409L71.6147 79.5097L72.6598 78.6933L76.5072 81.1609L76.8195 80.9834L77.2583 81.5467L75.7622 82.7142L75.3234 82.1509L75.5458 81.8957L75.0866 81.5569L73.7987 82.5591L74.0212 83.0836L74.3212 82.9306L74.7621 83.4939L73.2619 84.6655ZM73.466 81.7263L74.3437 81.0426L73.0088 80.1343L72.8537 80.0282L72.8373 80.0404L72.9108 80.2302L73.466 81.7263Z" fill="#151515"/>
<path d="M78.4159 80.4649L77.875 79.9975L78.1301 79.5281L75.5379 77.2972L75.1114 77.6217L74.5664 77.1523L74.9073 76.7563L75.7237 75.8113L79.516 76.3869L79.5303 76.3706L77.6933 74.7928L77.1749 75.2255L76.6299 74.7561L77.7709 73.4294L78.1138 73.0212L78.6587 73.4906L78.3995 73.9621L81.6203 76.7318L80.8345 77.6483L77.0687 77.1462L77.0565 77.1625L78.8404 78.6974L79.3609 78.2626L79.9038 78.728L78.4159 80.4649Z" fill="#151515"/>
<path d="M82.4735 75.5848L81.8612 75.2296L81.9918 74.8949L78.9976 71.4373L79.6548 70.2882L84.1451 71.1148L84.3656 70.8311L84.9779 71.1863L84.0512 72.8273L83.4287 72.4722L83.5389 72.1537L82.9858 72.0129L82.1694 73.4294L82.5776 73.8376L82.796 73.5804L83.4083 73.9376L82.4735 75.5848ZM81.5571 72.7844L82.1102 71.819L80.5304 71.4843L80.3487 71.4435L80.3365 71.4618L80.4773 71.6108L81.5571 72.7844Z" fill="#151515"/>
<path d="M85.5817 69.7657L84.9061 69.531L84.9734 68.9983L81.7424 67.8736L81.4628 68.3329L80.7852 68.0981L80.9586 67.6001L81.3669 66.4428L81.571 65.8305L82.2506 66.0652L82.1445 66.7082L85.2714 67.7961L85.6674 66.6572L85.0081 66.3979L85.3143 65.5142L86.8696 66.055L85.5817 69.7657Z" fill="#151515"/>
<path d="M22.1168 29.8996L21.4371 29.2873L21.7168 28.879L18.6919 23.2049L19.79 21.9904L25.7213 24.4397L26.1091 24.1193L26.7888 24.7316L25.1049 26.5931L24.4232 25.9807L24.6763 25.5725L23.8599 25.1868L22.274 26.94L22.7414 27.7095L23.121 27.4217L23.8007 28.034L22.1168 29.8996ZM21.6759 25.9379L22.7965 24.6989L20.6125 23.7315L20.3982 23.6376L20.3778 23.66L20.5125 23.8846L21.6759 25.9379Z" fill="#151515"/>
<path d="M27.6444 24.0866L27.1076 23.3416L27.6199 22.7885L24.7624 18.8207L24.0725 19.1309L23.5337 18.3818L24.1317 17.9491L25.3931 17.0408L26.0993 16.5326L26.6382 17.2817L26.0258 17.9103L28.8139 21.7884L30.2957 20.7209L29.7487 19.8698L30.708 19.1799L31.9919 20.9617L27.6444 24.0866Z" fill="#151515"/>
<path d="M32.9511 20.3964L32.5653 19.5555L33.1776 19.1085L31.1161 14.6773L30.3834 14.8529L29.9956 14.016L30.6651 13.7058L32.0775 13.0506L32.8653 12.6852L33.2531 13.5221L32.5265 14.0242L34.5329 18.3533L36.1902 17.5858L35.8126 16.647L36.8862 16.151L37.8108 18.1431L32.9511 20.3964Z" fill="#151515"/>
<path d="M41.9154 17.1327C41.4083 17.2614 40.8798 17.2822 40.3642 17.1939C39.9169 17.1191 39.5027 16.9107 39.1763 16.5959C38.8408 16.2553 38.6123 15.8239 38.519 15.3549L37.7026 11.8851L36.9556 11.9055L36.7515 11.0075L39.7008 10.3217L39.9049 11.2197L39.2212 11.532L40.0376 15.0018C40.0882 15.2508 40.2005 15.4831 40.3642 15.6774C40.5064 15.84 40.6977 15.9517 40.9091 15.9958C41.152 16.0428 41.4023 16.0351 41.6419 15.9734C41.8897 15.9214 42.1235 15.817 42.3277 15.6672C42.4979 15.5328 42.6209 15.3476 42.6787 15.1386C42.7377 14.8905 42.7335 14.6315 42.6665 14.3854L41.8501 10.9156L41.103 10.936L40.8989 10.038L43.8503 9.35013L44.0544 10.2482L43.3747 10.5748L44.1912 14.0446C44.3121 14.5062 44.2943 14.9932 44.1401 15.4448C43.9776 15.8657 43.696 16.2302 43.3298 16.4939C42.9089 16.8046 42.4268 17.0223 41.9154 17.1327Z" fill="#151515"/>
<path d="M46.4199 16.104L46.4322 15.1876L47.1731 15.0467L47.2425 10.1482L46.5056 9.98897L46.5179 9.06641L47.2568 9.07661L48.8365 9.09702L51.7104 13.8405H51.741L51.79 10.2278L50.8796 10.0645L50.8919 9.14193L53.1861 9.17458H53.9249L53.9127 10.0971L53.1718 10.2359L53.0881 16.1959L51.5675 16.1734L48.6324 11.5177H48.6039L48.5651 15.0651L49.4795 15.2263L49.4672 16.1448L46.4199 16.104Z" fill="#151515"/>
<path d="M57.9926 17.3103C57.3726 17.1769 56.7992 16.8811 56.3312 16.453C55.9248 16.0671 55.6409 15.5703 55.5147 15.0243C55.3852 14.4251 55.4013 13.8035 55.5617 13.2118L55.629 12.9404C55.7703 12.3164 56.0531 11.7333 56.4557 11.2361C56.8208 10.7951 57.3045 10.4679 57.8497 10.2931C58.4367 10.1168 59.0616 10.1105 59.652 10.2747C60.1245 10.3909 60.5766 10.5781 60.993 10.8299C61.3919 11.068 61.7389 11.3838 62.0135 11.7586L61.6277 13.2996L60.5317 13.024V12.0831C60.4221 11.9303 60.2833 11.8005 60.1235 11.7014C59.9199 11.5758 59.6972 11.4842 59.4642 11.43C59.1231 11.3335 58.7599 11.3507 58.4294 11.479C58.1044 11.6183 57.8256 11.8469 57.6252 12.1382C57.3852 12.4863 57.2141 12.877 57.1211 13.2894L57.0496 13.569C56.9439 13.9572 56.9195 14.363 56.9782 14.761C57.0279 15.0973 57.1764 15.4113 57.4048 15.6631C57.6542 15.9227 57.9754 16.1018 58.3273 16.1775C58.5371 16.2307 58.752 16.2608 58.9682 16.2673C59.1403 16.2759 59.3127 16.2656 59.4826 16.2367L59.7357 15.2162L58.8866 14.9141L59.1458 13.869L61.5277 14.4528L60.8317 17.2531C60.4144 17.4034 59.9751 17.4834 59.5316 17.4899C59.0128 17.5002 58.4951 17.4397 57.9926 17.3103Z" fill="#151515"/>
<path d="M61.832 18.2288L62.2402 17.4123L62.7158 17.5715L67.3837 13.1649L68.8451 13.9078L68.0287 20.2739L68.4369 20.5638L68.0287 21.3802L65.7835 20.2433L66.1917 19.4269L66.653 19.5636L66.8122 18.6737L64.7018 17.6042L64.0895 18.2594L64.4854 18.5472L64.0772 19.3636L61.832 18.2288ZM65.5386 16.7633L67.0286 17.5205L67.3878 15.157L67.4225 14.9202L67.396 14.9059L67.2143 15.0957L65.5386 16.7633Z" fill="#151515"/>
<path d="M69.6455 22.666L70.2211 21.9496L70.8946 22.2986L73.8746 18.5839L72.952 17.843L72.4009 18.4288L71.4906 17.696L72.7438 16.1387L77.7302 20.1474L76.477 21.7067L75.5585 20.9679L76.0116 20.3045L75.0992 19.5554L72.1111 23.2702L72.5969 23.8519L72.0233 24.5683L69.6455 22.666Z" fill="#151515"/>
<path d="M73.4766 25.7317L74.1828 25.1459L74.5563 25.4827L80.5876 23.2906L81.6347 24.55L78.369 30.0751L78.6303 30.5037L77.9261 31.0895L76.3239 29.1485L77.028 28.5627L77.3975 28.8709L77.8955 28.1198L76.3851 26.2991L75.5564 26.6543L75.7891 27.0625L75.0829 27.6503L73.4766 25.7317ZM77.4607 25.8583L78.5282 27.1421L79.7957 25.1174L79.9202 24.9133L79.9018 24.8908L79.659 24.9908L77.4607 25.8583Z" fill="#151515"/>
<path d="M49.9939 100C22.4232 100 -0.012207 77.5707 -0.012207 49.9939C-0.012207 22.417 22.4395 0 49.9939 0C77.5483 0 100 22.4293 100 50.0061C100 77.583 77.5708 100 49.9939 100ZM49.9939 3.16161C24.1663 3.16161 3.15553 24.1723 3.15553 50C3.15553 75.8277 24.1724 96.8384 49.9939 96.8384C75.8154 96.8384 96.8384 75.8256 96.8384 50C96.8384 24.1744 75.8257 3.16161 49.9939 3.16161Z" fill="#0F0F0F"/>
<path d="M8.32351 49.9184C8.34969 49.8237 8.40373 49.739 8.47863 49.6755C8.56494 49.6248 8.66235 49.5961 8.76234 49.5918L10.3972 49.355C10.4688 49.3461 10.5367 49.3183 10.5941 49.2746C10.6515 49.2308 10.6962 49.1727 10.7238 49.106C10.9728 48.5957 11.2259 48.0855 11.477 47.5752C11.5009 47.5144 11.5405 47.461 11.5917 47.4205C11.643 47.38 11.7041 47.3538 11.7688 47.3446C11.8514 47.3281 11.9371 47.3406 12.0115 47.38C12.0859 47.4195 12.1443 47.4834 12.177 47.5609L12.6118 48.4427C12.72 48.6611 12.8302 48.8774 12.9343 49.0978C12.9655 49.1678 13.0146 49.2284 13.0766 49.2735C13.1385 49.3186 13.2112 49.3467 13.2874 49.355C13.8507 49.4326 14.414 49.5163 14.9774 49.5979C15.0517 49.606 15.1219 49.6358 15.1795 49.6835C15.237 49.7313 15.2793 49.7948 15.301 49.8663C15.3227 49.9378 15.323 50.0141 15.3018 50.0858C15.2805 50.1575 15.2387 50.2213 15.1815 50.2694C14.8019 50.6368 14.4304 51.0144 14.0405 51.3716C13.9503 51.4457 13.8832 51.5441 13.847 51.6551C13.8108 51.7661 13.8072 51.8852 13.8364 51.9982C13.9405 52.5228 14.0222 53.0555 14.112 53.5841C14.1231 53.6534 14.1147 53.7244 14.0878 53.7892C14.0608 53.854 14.0163 53.91 13.9593 53.9509C13.9023 53.9918 13.835 54.016 13.765 54.0208C13.695 54.0256 13.625 54.0108 13.5629 53.978L12.9506 53.6617L12.0301 53.1739C11.9655 53.1368 11.8923 53.1173 11.8178 53.1173C11.7433 53.1173 11.6701 53.1368 11.6055 53.1739C11.1007 53.446 10.5952 53.712 10.089 53.9719C10.0166 54.0192 9.92976 54.0394 9.84389 54.0289C9.75801 54.0185 9.67858 53.978 9.61958 53.9148C9.57713 53.8763 9.54527 53.8276 9.52704 53.7732C9.50881 53.7189 9.50484 53.6608 9.51549 53.6045C9.61346 53.0228 9.71959 52.4411 9.81348 51.8615C9.82839 51.7909 9.82434 51.7177 9.80176 51.6492C9.77917 51.5807 9.73885 51.5194 9.6849 51.4716C9.27668 51.0818 8.88684 50.6919 8.48475 50.3041C8.41446 50.2365 8.35766 50.1562 8.31738 50.0674L8.32351 49.9184Z" fill="#151515"/>
<path d="M84.6757 49.9184C84.7019 49.8237 84.756 49.739 84.8309 49.6755C84.9172 49.6248 85.0146 49.5961 85.1146 49.5918L86.7474 49.355C86.8186 49.3457 86.8861 49.3178 86.9431 49.2741C87.0001 49.2304 87.0445 49.1724 87.0719 49.106L87.8271 47.5752C87.8556 47.507 87.9034 47.4485 87.9645 47.4069C88.0257 47.3652 88.0976 47.3423 88.1715 47.3407C88.2455 47.3392 88.3182 47.3592 88.381 47.3983C88.4438 47.4374 88.4939 47.4939 88.5252 47.5609L88.9599 48.4427C89.0681 48.6611 89.1783 48.8774 89.2824 49.0979C89.3135 49.1701 89.3635 49.2326 89.427 49.2789C89.4906 49.3253 89.5654 49.3537 89.6437 49.3611C90.207 49.4387 90.7704 49.5224 91.3337 49.604C91.4083 49.6099 91.4794 49.6382 91.5377 49.6852C91.596 49.7322 91.6387 49.7956 91.6603 49.8673C91.6841 49.9394 91.6855 50.0169 91.6644 50.0898C91.6432 50.1627 91.6005 50.2274 91.5419 50.2755C91.1622 50.6429 90.7928 51.0205 90.403 51.3777C90.3127 51.4518 90.2456 51.5502 90.2094 51.6612C90.1733 51.7722 90.1696 51.8913 90.1989 52.0043C90.303 52.5289 90.3846 53.0616 90.4744 53.5902C90.4855 53.6595 90.4772 53.7305 90.4502 53.7953C90.4232 53.8601 90.3787 53.9161 90.3217 53.957C90.2647 53.9979 90.1974 54.0221 90.1274 54.0269C90.0574 54.0317 89.9874 54.0169 89.9254 53.9842L89.313 53.6678L88.3762 53.1739C88.312 53.1368 88.2391 53.1173 88.1649 53.1173C88.0908 53.1173 88.0179 53.1368 87.9537 53.1739C87.4502 53.446 86.9447 53.712 86.4372 53.9719C86.3647 54.0192 86.2779 54.0394 86.192 54.0289C86.1062 54.0185 86.0267 53.978 85.9677 53.9148C85.9253 53.8763 85.8934 53.8276 85.8752 53.7732C85.857 53.7189 85.853 53.6608 85.8636 53.6045C85.9616 53.0235 86.0603 52.4425 86.1596 51.8615C86.1747 51.7911 86.171 51.718 86.1488 51.6495C86.1266 51.581 86.0866 51.5197 86.033 51.4716C85.633 51.0811 85.2323 50.6919 84.8309 50.3041C84.7612 50.2364 84.7051 50.1561 84.6655 50.0674L84.6757 49.9184Z" fill="#151515"/>
</g>
<defs>
<clipPath id="clip0_509_18">
<rect width="100" height="100" fill="white"/>
</clipPath>
</defs>
</svg>
