<svg width="72" height="72" viewBox="0 0 72 72" fill="none" xmlns="http://www.w3.org/2000/svg">
<rect width="72" height="72" rx="36" fill="#F3C9C9"/>
<mask id="mask0_394_84" style="mask-type:alpha" maskUnits="userSpaceOnUse" x="16" y="16" width="40" height="40">
<rect x="16" y="16" width="40" height="40" fill="#D9D9D9"/>
</mask>
<g mask="url(#mask0_394_84)">
<path d="M42.6666 37.6668L35.75 30.9168C34.8888 30.0835 34.1597 29.1599 33.5625 28.146C32.9652 27.1321 32.6666 26.0279 32.6666 24.8335C32.6666 23.3057 33.2013 22.0071 34.2708 20.9377C35.3402 19.8682 36.6388 19.3335 38.1666 19.3335C39.0555 19.3335 39.8888 19.521 40.6666 19.896C41.4444 20.271 42.1111 20.7779 42.6666 21.4168C43.2222 20.7779 43.8888 20.271 44.6666 19.896C45.4444 19.521 46.2777 19.3335 47.1666 19.3335C48.6944 19.3335 49.993 19.8682 51.0625 20.9377C52.1319 22.0071 52.6666 23.3057 52.6666 24.8335C52.6666 26.0279 52.375 27.1321 51.7916 28.146C51.2083 29.1599 50.4861 30.0835 49.625 30.9168L42.6666 37.6668ZM42.6666 33.0002L47.2083 28.5418C47.7361 28.0141 48.2222 27.4516 48.6666 26.8543C49.1111 26.2571 49.3333 25.5835 49.3333 24.8335C49.3333 24.2224 49.125 23.7085 48.7083 23.2918C48.2916 22.8752 47.7777 22.6668 47.1666 22.6668C46.7777 22.6668 46.4097 22.7432 46.0625 22.896C45.7152 23.0488 45.4166 23.2779 45.1666 23.5835L42.6666 26.5835L40.1666 23.5835C39.9166 23.2779 39.618 23.0488 39.2708 22.896C38.9236 22.7432 38.5555 22.6668 38.1666 22.6668C37.5555 22.6668 37.0416 22.8752 36.625 23.2918C36.2083 23.7085 36 24.2224 36 24.8335C36 25.5835 36.2222 26.2571 36.6666 26.8543C37.1111 27.4516 37.5972 28.0141 38.125 28.5418L42.6666 33.0002ZM27.6666 46.8335L39.25 50.0002L49.1666 46.9168C49.0277 46.6668 48.8263 46.4516 48.5625 46.271C48.2986 46.0904 48 46.0002 47.6666 46.0002H39.25C38.5 46.0002 37.9027 45.9724 37.4583 45.9168C37.0138 45.8613 36.5555 45.7502 36.0833 45.5835L32.2083 44.2918L33.125 41.0418L36.5 42.1668C36.9722 42.3057 37.5277 42.4168 38.1666 42.5002C38.8055 42.5835 39.75 42.6391 41 42.6668C41 42.3613 40.9097 42.0696 40.7291 41.7918C40.5486 41.5141 40.3333 41.3335 40.0833 41.2502L30.3333 37.6668H27.6666V46.8335ZM17.6666 52.6668V34.3335H30.3333C30.5277 34.3335 30.7222 34.3543 30.9166 34.396C31.1111 34.4377 31.2916 34.4863 31.4583 34.5418L41.25 38.1668C42.1666 38.5002 42.9097 39.0835 43.4791 39.9168C44.0486 40.7502 44.3333 41.6668 44.3333 42.6668H47.6666C49.0555 42.6668 50.2361 43.1252 51.2083 44.0418C52.1805 44.9585 52.6666 46.1668 52.6666 47.6668V49.3335L39.3333 53.5002L27.6666 50.2502V52.6668H17.6666ZM21 49.3335H24.3333V37.6668H21V49.3335Z" fill="black"/>
</g>
</svg>
