<svg width="72" height="72" viewBox="0 0 72 72" fill="none" xmlns="http://www.w3.org/2000/svg">
<rect width="72" height="72" rx="36" fill="#F3C9C9"/>
<mask id="mask0_394_96" style="mask-type:alpha" maskUnits="userSpaceOnUse" x="16" y="16" width="40" height="40">
<rect x="16" y="16" width="40" height="40" fill="#D9D9D9"/>
</mask>
<g mask="url(#mask0_394_96)">
<mask id="mask1_394_96" style="mask-type:alpha" maskUnits="userSpaceOnUse" x="15" y="16" width="40" height="40">
<rect x="15" y="16" width="40" height="40" fill="#D9D9D9"/>
</mask>
<g mask="url(#mask1_394_96)">
<path d="M34.9999 45.1668C36.8888 45.1668 38.6041 44.6321 40.1458 43.5627C41.6874 42.4932 42.8055 41.0835 43.4999 39.3335H26.4999C27.1944 41.0835 28.3124 42.4932 29.8541 43.5627C31.3958 44.6321 33.111 45.1668 34.9999 45.1668ZM27.9999 34.3335L29.8333 32.5835L31.5833 34.3335L33.3333 32.5835L29.8333 29.0002L26.2499 32.5835L27.9999 34.3335ZM38.4166 34.3335L40.1666 32.5835L41.9999 34.3335L43.7499 32.5835L40.1666 29.0002L36.6666 32.5835L38.4166 34.3335ZM34.9999 52.6668C32.6944 52.6668 30.5277 52.2293 28.4999 51.3543C26.4721 50.4793 24.7083 49.2918 23.2083 47.7918C21.7083 46.2918 20.5208 44.5279 19.6458 42.5002C18.7708 40.4724 18.3333 38.3057 18.3333 36.0002C18.3333 33.6946 18.7708 31.5279 19.6458 29.5002C20.5208 27.4724 21.7083 25.7085 23.2083 24.2085C24.7083 22.7085 26.4721 21.521 28.4999 20.646C30.5277 19.771 32.6944 19.3335 34.9999 19.3335C37.3055 19.3335 39.4721 19.771 41.4999 20.646C43.5277 21.521 45.2916 22.7085 46.7916 24.2085C48.2916 25.7085 49.4791 27.4724 50.3541 29.5002C51.2291 31.5279 51.6666 33.6946 51.6666 36.0002C51.6666 38.3057 51.2291 40.4724 50.3541 42.5002C49.4791 44.5279 48.2916 46.2918 46.7916 47.7918C45.2916 49.2918 43.5277 50.4793 41.4999 51.3543C39.4721 52.2293 37.3055 52.6668 34.9999 52.6668ZM34.9999 49.3335C38.7221 49.3335 41.8749 48.0418 44.4583 45.4585C47.0416 42.8752 48.3333 39.7224 48.3333 36.0002C48.3333 32.2779 47.0416 29.1252 44.4583 26.5418C41.8749 23.9585 38.7221 22.6668 34.9999 22.6668C31.2777 22.6668 28.1249 23.9585 25.5416 26.5418C22.9583 29.1252 21.6666 32.2779 21.6666 36.0002C21.6666 39.7224 22.9583 42.8752 25.5416 45.4585C28.1249 48.0418 31.2777 49.3335 34.9999 49.3335Z" fill="#1C1B1F"/>
</g>
</g>
</svg>
