<svg width="72" height="72" viewBox="0 0 72 72" fill="none" xmlns="http://www.w3.org/2000/svg">
<rect width="72" height="72" rx="36" fill="#F3C9C9"/>
<mask id="mask0_394_87" style="mask-type:alpha" maskUnits="userSpaceOnUse" x="16" y="16" width="40" height="40">
<rect x="16" y="16" width="40" height="40" fill="#D9D9D9"/>
</mask>
<g mask="url(#mask0_394_87)">
<mask id="mask1_394_87" style="mask-type:alpha" maskUnits="userSpaceOnUse" x="15" y="16" width="40" height="40">
<rect x="15" y="16" width="40" height="40" fill="#D9D9D9"/>
</mask>
<g mask="url(#mask1_394_87)">
<path d="M29.5833 53.3749C28.3056 53.3749 27.1597 53.0416 26.1458 52.3749C25.1319 51.7083 24.3472 50.7916 23.7917 49.6249C23.3472 50.2083 22.7847 50.6596 22.1042 50.9791C21.4236 51.2985 20.7222 51.4583 20 51.4583C18.5833 51.4583 17.3958 50.9721 16.4375 49.9999C15.4792 49.0277 15 47.8471 15 46.4583C15 45.2638 15.3889 44.1874 16.1667 43.2291C16.9444 42.2708 17.9306 41.7221 19.125 41.5833C18.7361 41.0277 18.4375 40.4374 18.2292 39.8124C18.0208 39.1874 17.9167 38.5277 17.9167 37.8333C17.9167 36.7221 18.2014 35.6805 18.7708 34.7083C19.3403 33.736 20.1389 32.9444 21.1667 32.3333C21.3056 32.8333 21.4931 33.368 21.7292 33.9374C21.9653 34.5069 22.2361 34.9999 22.5417 35.4166C22.1528 35.7221 21.8472 36.0902 21.625 36.5208C21.4028 36.9513 21.2917 37.4027 21.2917 37.8749C21.2917 39.4305 21.9306 40.3888 23.2083 40.7499C24.4861 41.111 25.6944 41.4027 26.8333 41.6249L27.625 42.9583C27.3194 43.8471 27.0556 44.6041 26.8333 45.2291C26.6111 45.8541 26.5 46.4166 26.5 46.9166C26.5 47.7499 26.7986 48.4791 27.3958 49.1041C27.9931 49.7291 28.7222 50.0416 29.5833 50.0416C30.6389 50.0416 31.5139 49.5694 32.2083 48.6249C32.9028 47.6805 33.4722 46.5694 33.9167 45.2916C34.3611 44.0138 34.7014 42.7221 34.9375 41.4166C35.1736 40.111 35.3611 39.111 35.5 38.4166L38.75 39.2916C38.5 40.5416 38.1944 41.9721 37.8333 43.5833C37.4722 45.1944 36.9653 46.7291 36.3125 48.1874C35.6597 49.6458 34.7986 50.8749 33.7292 51.8749C32.6597 52.8749 31.2778 53.3749 29.5833 53.3749ZM20 48.1249C20.4722 48.1249 20.8681 47.9652 21.1875 47.6458C21.5069 47.3263 21.6667 46.9305 21.6667 46.4583C21.6667 45.986 21.5069 45.5902 21.1875 45.2708C20.8681 44.9513 20.4722 44.7916 20 44.7916C19.5278 44.7916 19.1319 44.9513 18.8125 45.2708C18.4931 45.5902 18.3333 45.986 18.3333 46.4583C18.3333 46.9305 18.4931 47.3263 18.8125 47.6458C19.1319 47.9652 19.5278 48.1249 20 48.1249ZM31.8333 41.5416C30.5556 40.4027 29.3958 39.3402 28.3542 38.3541C27.3125 37.368 26.4167 36.4096 25.6667 35.4791C24.9167 34.5485 24.3403 33.618 23.9375 32.6874C23.5347 31.7569 23.3333 30.7916 23.3333 29.7916C23.3333 27.986 23.9514 26.4652 25.1875 25.2291C26.4236 23.993 27.9444 23.3749 29.75 23.3749C29.8611 23.3749 29.9583 23.3819 30.0417 23.3958C30.125 23.4096 30.2222 23.4166 30.3333 23.4166C30.2222 23.1388 30.1389 22.861 30.0833 22.5833C30.0278 22.3055 30 22.0138 30 21.7083C30 20.3194 30.4861 19.1388 31.4583 18.1666C32.4306 17.1944 33.6111 16.7083 35 16.7083C36.3889 16.7083 37.5694 17.1944 38.5417 18.1666C39.5139 19.1388 40 20.3194 40 21.7083C40 22.0138 39.9722 22.2985 39.9167 22.5624C39.8611 22.8263 39.7778 23.0971 39.6667 23.3749H40.25C41.9167 23.3749 43.3333 23.9096 44.5 24.9791C45.6667 26.0485 46.3611 27.3749 46.5833 28.9583C46.0833 28.8749 45.5208 28.8333 44.8958 28.8333C44.2708 28.8333 43.6944 28.861 43.1667 28.9166C42.9722 28.2777 42.6181 27.7499 42.1042 27.3333C41.5903 26.9166 40.9722 26.7083 40.25 26.7083C39.2778 26.7083 38.5208 26.993 37.9792 27.5624C37.4375 28.1319 36.6944 28.9583 35.75 30.0416H34.2083C33.2361 28.9027 32.4792 28.0624 31.9375 27.5208C31.3958 26.9791 30.6667 26.7083 29.75 26.7083C28.8611 26.7083 28.125 26.9999 27.5417 27.5833C26.9583 28.1666 26.6667 28.9027 26.6667 29.7916C26.6667 30.4305 26.8472 31.0902 27.2083 31.7708C27.5694 32.4513 28.0764 33.1735 28.7292 33.9374C29.3819 34.7013 30.1736 35.5138 31.1042 36.3749C32.0347 37.236 33.0694 38.1666 34.2083 39.1666L31.8333 41.5416ZM35 23.3749C35.4722 23.3749 35.8681 23.2152 36.1875 22.8958C36.5069 22.5763 36.6667 22.1805 36.6667 21.7083C36.6667 21.236 36.5069 20.8402 36.1875 20.5208C35.8681 20.2013 35.4722 20.0416 35 20.0416C34.5278 20.0416 34.1319 20.2013 33.8125 20.5208C33.4931 20.8402 33.3333 21.236 33.3333 21.7083C33.3333 22.1805 33.4931 22.5763 33.8125 22.8958C34.1319 23.2152 34.5278 23.3749 35 23.3749ZM40.375 53.3749C39.7639 53.3749 39.1597 53.2916 38.5625 53.1249C37.9653 52.9583 37.3889 52.6944 36.8333 52.3333C37.1389 51.9444 37.4444 51.486 37.75 50.9583C38.0556 50.4305 38.3333 49.9444 38.5833 49.4999C38.8889 49.6944 39.1944 49.8333 39.5 49.9166C39.8056 49.9999 40.1111 50.0416 40.4167 50.0416C41.3056 50.0416 42.0486 49.7291 42.6458 49.1041C43.2431 48.4791 43.5417 47.736 43.5417 46.8749C43.5417 46.3471 43.4306 45.7777 43.2083 45.1666C42.9861 44.5555 42.7222 43.8055 42.4167 42.9166L43.2083 41.5833C44.375 41.361 45.5903 41.0694 46.8542 40.7083C48.1181 40.3471 48.75 39.3888 48.75 37.8333C48.75 36.7221 48.3403 35.9166 47.5208 35.4166C46.7014 34.9166 45.8056 34.6666 44.8333 34.6666C43.6667 34.6666 42.3056 34.8888 40.75 35.3333C39.1944 35.7777 37.375 36.3471 35.2917 37.0416L34.4167 33.7916C36.5833 33.0971 38.5139 32.5138 40.2083 32.0416C41.9028 31.5694 43.4583 31.3333 44.875 31.3333C46.7917 31.3333 48.4722 31.9027 49.9167 33.0416C51.3611 34.1805 52.0833 35.7777 52.0833 37.8333C52.0833 38.5277 51.9792 39.1874 51.7708 39.8124C51.5625 40.4374 51.2639 41.0277 50.875 41.5833C52.0694 41.7221 53.0556 42.2708 53.8333 43.2291C54.6111 44.1874 55 45.2638 55 46.4583C55 47.8471 54.5208 49.0277 53.5625 49.9999C52.6042 50.9721 51.4167 51.4583 50 51.4583C49.2778 51.4583 48.5764 51.2985 47.8958 50.9791C47.2153 50.6596 46.6528 50.2083 46.2083 49.6249C45.6528 50.7916 44.8681 51.7083 43.8542 52.3749C42.8403 53.0416 41.6806 53.3749 40.375 53.3749ZM50.0417 48.1249C50.5139 48.1249 50.9028 47.9652 51.2083 47.6458C51.5139 47.3263 51.6667 46.9305 51.6667 46.4583C51.6667 45.986 51.5069 45.5833 51.1875 45.2499C50.8681 44.9166 50.4722 44.7499 50 44.7499C49.5278 44.7499 49.1319 44.9096 48.8125 45.2291C48.4931 45.5485 48.3333 45.9444 48.3333 46.4166C48.3333 46.8888 48.5 47.2916 48.8333 47.6249C49.1667 47.9583 49.5694 48.1249 50.0417 48.1249Z" fill="#1C1B1F"/>
</g>
</g>
</svg>
