<svg width="132" height="19" viewBox="0 0 132 19" fill="none" xmlns="http://www.w3.org/2000/svg">
<path d="M3.82503 19L5.45003 11.975L3.05176e-05 7.25L7.20003 6.625L10 0L12.8 6.625L20 7.25L14.55 11.975L16.175 19L10 15.275L3.82503 19Z" fill="#1C1B1F"/>
<path d="M31.825 19L33.45 11.975L28 7.25L35.2 6.625L38 0L40.8 6.625L48 7.25L42.55 11.975L44.175 19L38 15.275L31.825 19Z" fill="#1C1B1F"/>
<path d="M59.825 19L61.45 11.975L56 7.25L63.2 6.625L66 0L68.8 6.625L76 7.25L70.55 11.975L72.175 19L66 15.275L59.825 19Z" fill="#1C1B1F"/>
<path d="M87.825 19L89.45 11.975L84 7.25L91.2 6.625L94 0L96.8 6.625L104 7.25L98.55 11.975L100.175 19L94 15.275L87.825 19Z" fill="#1C1B1F"/>
<path d="M115.825 19L117.45 11.975L112 7.25L119.2 6.625L122 0L124.8 6.625L132 7.25L126.55 11.975L128.175 19L122 15.275L115.825 19Z" fill="#1C1B1F"/>
</svg>
