<svg width="104" height="19" viewBox="0 0 104 19" fill="none" xmlns="http://www.w3.org/2000/svg">
<path d="M3.825 19L5.45 11.975L0 7.25L7.2 6.625L10 0L12.8 6.625L20 7.25L14.55 11.975L16.175 19L10 15.275L3.825 19Z" fill="#1C1B1F"/>
<path d="M31.825 19L33.45 11.975L28 7.25L35.2 6.625L38 0L40.8 6.625L48 7.25L42.55 11.975L44.175 19L38 15.275L31.825 19Z" fill="#1C1B1F"/>
<path d="M59.825 19L61.45 11.975L56 7.25L63.2 6.625L66 0L68.8 6.625L76 7.25L70.55 11.975L72.175 19L66 15.275L59.825 19Z" fill="#1C1B1F"/>
<path d="M87.825 19L89.45 11.975L84 7.25L91.2 6.625L94 0L96.8 6.625L104 7.25L98.55 11.975L100.175 19L94 15.275L87.825 19Z" fill="#1C1B1F"/>
</svg>
