<svg width="24" height="24" viewBox="0 0 24 24" fill="none" xmlns="http://www.w3.org/2000/svg">
<g clip-path="url(#clip0_155_104)">
<path d="M23.7264 12.2659C23.7264 11.282 23.6466 10.5641 23.4738 9.81958H12.2393V14.2601H18.8337C18.7008 15.3637 17.9829 17.0256 16.3874 18.1423L16.365 18.291L19.9172 21.0428L20.1633 21.0674C22.4234 18.98 23.7264 15.9088 23.7264 12.2659Z" fill="#4285F4"/>
<path d="M12.2393 23.9656C15.47 23.9656 18.1822 22.9019 20.1633 21.0673L16.3874 18.1422C15.377 18.8469 14.0209 19.3388 12.2393 19.3388C9.07508 19.3388 6.38946 17.2515 5.43212 14.3665L5.29179 14.3784L1.59823 17.2369L1.54993 17.3711C3.5176 21.2799 7.55936 23.9656 12.2393 23.9656Z" fill="#34A853"/>
<path d="M5.43212 14.3666C5.17952 13.6221 5.03333 12.8243 5.03333 12.0001C5.03333 11.1757 5.17952 10.378 5.41883 9.63352L5.41214 9.47496L1.67229 6.57056L1.54993 6.62876C0.738959 8.2508 0.273621 10.0723 0.273621 12.0001C0.273621 13.9279 0.738959 15.7493 1.54993 17.3713L5.43212 14.3666Z" fill="#FBBC05"/>
<path d="M12.2393 4.66089C14.4862 4.66089 16.0018 5.63144 16.866 6.44251L20.243 3.14527C18.169 1.21746 15.47 0.0341797 12.2393 0.0341797C7.55936 0.0341797 3.5176 2.7198 1.54993 6.62857L5.41883 9.63333C6.38947 6.74827 9.07508 4.66089 12.2393 4.66089Z" fill="#EB4335"/>
</g>
<defs>
<clipPath id="clip0_155_104">
<rect width="23.4528" height="24" fill="white" transform="translate(0.273621)"/>
</clipPath>
</defs>
</svg>
