<svg width="22" height="22" viewBox="0 0 22 22" fill="none" xmlns="http://www.w3.org/2000/svg">
<path d="M11.0046 5.60928C8.03429 5.60928 5.63841 8.01397 5.63841 10.9952C5.63841 13.9765 8.03429 16.3812 11.0046 16.3812C13.975 16.3812 16.3708 13.9765 16.3708 10.9952C16.3708 8.01397 13.975 5.60928 11.0046 5.60928ZM11.0046 14.4968C9.08512 14.4968 7.51589 12.9265 7.51589 10.9952C7.51589 9.06397 9.08045 7.49365 11.0046 7.49365C12.9288 7.49365 14.4934 9.06397 14.4934 10.9952C14.4934 12.9265 12.9241 14.4968 11.0046 14.4968ZM17.842 5.38897C17.842 6.0874 17.2815 6.64522 16.5903 6.64522C15.8945 6.64522 15.3387 6.08272 15.3387 5.38897C15.3387 4.69522 15.8991 4.13271 16.5903 4.13271C17.2815 4.13271 17.842 4.69522 17.842 5.38897ZM21.3961 6.66397C21.3167 4.98115 20.9337 3.49053 19.7054 2.2624C18.4818 1.03428 16.9967 0.649902 15.32 0.565527C13.592 0.46709 8.41259 0.46709 6.68457 0.565527C5.01259 0.645215 3.52743 1.02959 2.29913 2.25771C1.07083 3.48584 0.692536 4.97646 0.60847 6.65928C0.510393 8.39365 0.510393 13.5921 0.60847 15.3265C0.687865 17.0093 1.07083 18.4999 2.29913 19.728C3.52743 20.9562 5.00792 21.3405 6.68457 21.4249C8.41259 21.5233 13.592 21.5233 15.32 21.4249C16.9967 21.3452 18.4818 20.9608 19.7054 19.728C20.9291 18.4999 21.312 17.0093 21.3961 15.3265C21.4942 13.5921 21.4942 8.39834 21.3961 6.66397ZM19.1637 17.1874C18.7994 18.1062 18.0942 18.814 17.1741 19.1843C15.7964 19.7327 12.5272 19.6062 11.0046 19.6062C9.4821 19.6062 6.2082 19.728 4.83512 19.1843C3.91973 18.8187 3.21451 18.1108 2.84556 17.1874C2.29913 15.8046 2.42523 12.5233 2.42523 10.9952C2.42523 9.46709 2.3038 6.18115 2.84556 4.80303C3.20984 3.88428 3.91506 3.17646 4.83512 2.80615C6.21287 2.25771 9.4821 2.38428 11.0046 2.38428C12.5272 2.38428 15.8011 2.2624 17.1741 2.80615C18.0895 3.17178 18.7947 3.87959 19.1637 4.80303C19.7101 6.18584 19.584 9.46709 19.584 10.9952C19.584 12.5233 19.7101 15.8093 19.1637 17.1874Z" fill="white"/>
</svg>
