<svg width="32" height="32" viewBox="0 0 32 32" fill="none" xmlns="http://www.w3.org/2000/svg">
<mask id="mask0_439_156" style="mask-type:alpha" maskUnits="userSpaceOnUse" x="0" y="0" width="32" height="32">
<rect width="32" height="32" fill="#D9D9D9"/>
</mask>
<g mask="url(#mask0_439_156)">
<path d="M18.6667 17.3334C17.5556 17.3334 16.6111 16.9445 15.8333 16.1667C15.0556 15.3889 14.6667 14.4445 14.6667 13.3334C14.6667 12.2223 15.0556 11.2778 15.8333 10.5C16.6111 9.72226 17.5556 9.33337 18.6667 9.33337C19.7778 9.33337 20.7222 9.72226 21.5 10.5C22.2778 11.2778 22.6667 12.2223 22.6667 13.3334C22.6667 14.4445 22.2778 15.3889 21.5 16.1667C20.7222 16.9445 19.7778 17.3334 18.6667 17.3334ZM9.33334 21.3334C8.60001 21.3334 7.97223 21.0723 7.45001 20.55C6.92779 20.0278 6.66668 19.4 6.66668 18.6667V8.00004C6.66668 7.26671 6.92779 6.63893 7.45001 6.11671C7.97223 5.59449 8.60001 5.33337 9.33334 5.33337H28C28.7333 5.33337 29.3611 5.59449 29.8833 6.11671C30.4056 6.63893 30.6667 7.26671 30.6667 8.00004V18.6667C30.6667 19.4 30.4056 20.0278 29.8833 20.55C29.3611 21.0723 28.7333 21.3334 28 21.3334H9.33334ZM12 18.6667H25.3333C25.3333 17.9334 25.5945 17.3056 26.1167 16.7834C26.6389 16.2612 27.2667 16 28 16V10.6667C27.2667 10.6667 26.6389 10.4056 26.1167 9.88337C25.5945 9.36115 25.3333 8.73337 25.3333 8.00004H12C12 8.73337 11.7389 9.36115 11.2167 9.88337C10.6945 10.4056 10.0667 10.6667 9.33334 10.6667V16C10.0667 16 10.6945 16.2612 11.2167 16.7834C11.7389 17.3056 12 17.9334 12 18.6667ZM26.6667 26.6667H4.00001C3.26668 26.6667 2.6389 26.4056 2.11668 25.8834C1.59445 25.3612 1.33334 24.7334 1.33334 24V9.33337H4.00001V24H26.6667V26.6667Z" fill="#1C1B1F"/>
</g>
</svg>
