<svg width="1366" height="112" viewBox="0 0 1366 112" fill="none" xmlns="http://www.w3.org/2000/svg">
<rect width="1366" height="112" fill="#101010"/>
<mask id="mask0_17_90" style="mask-type:alpha" maskUnits="userSpaceOnUse" x="498" y="40" width="33" height="32">
<rect x="498.5" y="40" width="32" height="32" fill="#D9D9D9"/>
</mask>
<g mask="url(#mask0_17_90)">
<path d="M525.1 68C522.322 68 519.578 67.3944 516.867 66.1833C514.156 64.9722 511.689 63.2556 509.467 61.0333C507.244 58.8111 505.528 56.3444 504.317 53.6333C503.106 50.9222 502.5 48.1778 502.5 45.4C502.5 45 502.633 44.6667 502.9 44.4C503.167 44.1333 503.5 44 503.9 44H509.3C509.611 44 509.889 44.1056 510.133 44.3167C510.378 44.5278 510.522 44.7778 510.567 45.0667L511.433 49.7333C511.478 50.0889 511.467 50.3889 511.4 50.6333C511.333 50.8778 511.211 51.0889 511.033 51.2667L507.8 54.5333C508.244 55.3556 508.772 56.15 509.383 56.9167C509.994 57.6833 510.667 58.4222 511.4 59.1333C512.089 59.8222 512.811 60.4611 513.567 61.05C514.322 61.6389 515.122 62.1778 515.967 62.6667L519.1 59.5333C519.3 59.3333 519.561 59.1833 519.883 59.0833C520.206 58.9833 520.522 58.9556 520.833 59L525.433 59.9333C525.744 60.0222 526 60.1833 526.2 60.4167C526.4 60.65 526.5 60.9111 526.5 61.2V66.6C526.5 67 526.367 67.3333 526.1 67.6C525.833 67.8667 525.5 68 525.1 68ZM506.533 52L508.733 49.8L508.167 46.6667H505.2C505.311 47.5778 505.467 48.4778 505.667 49.3667C505.867 50.2556 506.156 51.1333 506.533 52ZM518.467 63.9333C519.333 64.3111 520.217 64.6111 521.117 64.8333C522.017 65.0556 522.922 65.2 523.833 65.2667V62.3333L520.7 61.7L518.467 63.9333Z" fill="white"/>
</g>
<path d="M555.449 65V63.5234L557.359 63.1953V49.7539L555.449 49.4258V47.9375H561.578V49.4258L559.668 49.7539V55.6484H567.824V49.7539L565.914 49.4258V47.9375H567.824H570.133H572.043V49.4258L570.133 49.7539V63.1953L572.043 63.5234V65H565.914V63.5234L567.824 63.1953V57.4648H559.668V63.1953L561.578 63.5234V65H555.449ZM577.961 65.2461C576.641 65.2461 575.637 64.9258 574.949 64.2852C574.262 63.6367 573.918 62.7266 573.918 61.5547C573.918 60.75 574.137 60.0508 574.574 59.457C575.02 58.8555 575.66 58.3906 576.496 58.0625C577.332 57.7266 578.332 57.5586 579.496 57.5586H581.758V56.3164C581.758 55.5508 581.523 54.957 581.055 54.5352C580.594 54.1133 579.941 53.9023 579.098 53.9023C578.566 53.9023 578.105 53.9688 577.715 54.1016C577.324 54.2266 576.969 54.4023 576.648 54.6289L576.402 56.3984H574.621V53.4922C575.191 53.0312 575.855 52.6836 576.613 52.4492C577.371 52.207 578.211 52.0859 579.133 52.0859C580.672 52.0859 581.879 52.4531 582.754 53.1875C583.629 53.9219 584.066 54.9727 584.066 56.3398V62.4453C584.066 62.6094 584.066 62.7695 584.066 62.9258C584.074 63.082 584.086 63.2383 584.102 63.3945L585.332 63.5234V65H582.016C581.945 64.6562 581.891 64.3477 581.852 64.0742C581.812 63.8008 581.785 63.5273 581.77 63.2539C581.324 63.8242 580.766 64.3008 580.094 64.6836C579.43 65.0586 578.719 65.2461 577.961 65.2461ZM578.301 63.3125C579.066 63.3125 579.766 63.1289 580.398 62.7617C581.031 62.3945 581.484 61.9531 581.758 61.4375V59.1406H579.414C578.352 59.1406 577.555 59.3945 577.023 59.9023C576.492 60.4102 576.227 60.9766 576.227 61.6016C576.227 62.1562 576.398 62.582 576.742 62.8789C577.086 63.168 577.605 63.3125 578.301 63.3125ZM592.855 65.2461C591.707 65.2461 590.707 64.9805 589.855 64.4492C589.004 63.9102 588.344 63.1641 587.875 62.2109C587.406 61.2578 587.172 60.1562 587.172 58.9062V58.4141C587.172 57.2109 587.398 56.1328 587.852 55.1797C588.305 54.2266 588.957 53.4727 589.809 52.918C590.66 52.3633 591.676 52.0859 592.855 52.0859C593.879 52.0859 594.773 52.2539 595.539 52.5898C596.312 52.9258 596.961 53.3867 597.484 53.9727L597.543 57.0195H595.738L595.34 54.8047C595.074 54.5312 594.742 54.3125 594.344 54.1484C593.945 53.9844 593.477 53.9023 592.938 53.9023C592.25 53.9023 591.645 54.1055 591.121 54.5117C590.605 54.918 590.203 55.4609 589.914 56.1406C589.625 56.8203 589.48 57.5781 589.48 58.4141V58.9062C589.48 59.8281 589.613 60.6289 589.879 61.3086C590.152 61.9883 590.539 62.5156 591.039 62.8906C591.547 63.2578 592.148 63.4414 592.844 63.4414C593.625 63.4414 594.273 63.2266 594.789 62.7969C595.305 62.3672 595.621 61.7773 595.738 61.0273H597.812L597.836 61.0977C597.797 61.8242 597.582 62.5039 597.191 63.1367C596.801 63.7695 596.242 64.2812 595.516 64.6719C594.797 65.0547 593.91 65.2461 592.855 65.2461ZM605.887 65.2461C604.715 65.2461 603.695 64.9805 602.828 64.4492C601.961 63.9102 601.289 63.1641 600.812 62.2109C600.344 61.2578 600.109 60.1562 600.109 58.9062V58.3906C600.109 57.1875 600.355 56.1133 600.848 55.168C601.348 54.2148 602.008 53.4648 602.828 52.918C603.656 52.3633 604.559 52.0859 605.535 52.0859C606.676 52.0859 607.629 52.3203 608.395 52.7891C609.168 53.2578 609.75 53.918 610.141 54.7695C610.531 55.6133 610.727 56.6094 610.727 57.7578V59.1992H602.5L602.465 59.2578C602.48 60.0703 602.621 60.793 602.887 61.4258C603.16 62.0508 603.551 62.543 604.059 62.9023C604.566 63.2617 605.176 63.4414 605.887 63.4414C606.668 63.4414 607.352 63.332 607.938 63.1133C608.531 62.8867 609.043 62.5781 609.473 62.1875L610.375 63.6875C609.922 64.125 609.32 64.4961 608.57 64.8008C607.828 65.0977 606.934 65.2461 605.887 65.2461ZM602.57 57.3945H608.418V57.0898C608.418 56.4805 608.309 55.9375 608.09 55.4609C607.879 54.9766 607.559 54.5977 607.129 54.3242C606.707 54.043 606.176 53.9023 605.535 53.9023C605.02 53.9023 604.551 54.0547 604.129 54.3594C603.707 54.6562 603.359 55.0625 603.086 55.5781C602.812 56.0938 602.633 56.6797 602.547 57.3359L602.57 57.3945ZM604.105 49.9062L606.262 46.7188H608.957L608.98 46.7891L605.828 49.9062H604.211H604.105ZM622.984 65.1992C622.047 65.1992 621.301 64.9258 620.746 64.3789C620.199 63.8242 619.926 62.9414 619.926 61.7305V54.0312H617.922V52.3203H619.926V49.2617H622.234V52.3203H624.988V54.0312H622.234V61.7305C622.234 62.3398 622.355 62.7891 622.598 63.0781C622.84 63.3672 623.164 63.5117 623.57 63.5117C623.844 63.5117 624.148 63.4883 624.484 63.4414C624.82 63.3867 625.082 63.3398 625.27 63.3008L625.586 64.8125C625.25 64.9141 624.836 65.0039 624.344 65.082C623.859 65.1602 623.406 65.1992 622.984 65.1992ZM632.641 65.2461C631.266 65.2461 630.191 64.8047 629.418 63.9219C628.645 63.0391 628.258 61.6641 628.258 59.7969V54.1367L626.805 53.8086V52.3203H628.258H630.566V59.8203C630.566 61.1719 630.766 62.1016 631.164 62.6094C631.562 63.1172 632.184 63.3711 633.027 63.3711C633.848 63.3711 634.523 63.207 635.055 62.8789C635.594 62.543 636 62.0703 636.273 61.4609V54.1367L634.574 53.8086V52.3203H636.273H638.582V63.1953L640.035 63.5234V65H636.508L636.355 63.125C635.957 63.8047 635.441 64.3281 634.809 64.6953C634.184 65.0625 633.461 65.2461 632.641 65.2461ZM647.289 69.875V68.3867L649.082 68.0586V54.1367L647.172 53.8086V52.3203H651.062L651.273 53.8672C651.695 53.2891 652.207 52.8477 652.809 52.543C653.418 52.2383 654.121 52.0859 654.918 52.0859C655.965 52.0859 656.859 52.3711 657.602 52.9414C658.344 53.5039 658.91 54.2969 659.301 55.3203C659.691 56.3359 659.887 57.5273 659.887 58.8945V59.1406C659.887 60.3594 659.688 61.4258 659.289 62.3398C658.898 63.2539 658.336 63.9688 657.602 64.4844C656.867 64.9922 655.984 65.2461 654.953 65.2461C654.172 65.2461 653.484 65.1172 652.891 64.8594C652.305 64.5938 651.805 64.2031 651.391 63.6875V68.0586L653.406 68.3867V69.875H647.289ZM654.238 63.4414C655.332 63.4414 656.16 63.043 656.723 62.2461C657.285 61.4492 657.566 60.4141 657.566 59.1406V58.8945C657.566 57.9258 657.441 57.0742 657.191 56.3398C656.941 55.5977 656.566 55.0156 656.066 54.5938C655.574 54.1719 654.957 53.9609 654.215 53.9609C653.559 53.9609 652.996 54.1094 652.527 54.4062C652.059 54.7031 651.68 55.1094 651.391 55.625V61.8008C651.68 62.3242 652.055 62.7305 652.516 63.0195C652.984 63.3008 653.559 63.4414 654.238 63.4414ZM667.926 65.2461C666.754 65.2461 665.734 64.9805 664.867 64.4492C664 63.9102 663.328 63.1641 662.852 62.2109C662.383 61.2578 662.148 60.1562 662.148 58.9062V58.3906C662.148 57.1875 662.395 56.1133 662.887 55.168C663.387 54.2148 664.047 53.4648 664.867 52.918C665.695 52.3633 666.598 52.0859 667.574 52.0859C668.715 52.0859 669.668 52.3203 670.434 52.7891C671.207 53.2578 671.789 53.918 672.18 54.7695C672.57 55.6133 672.766 56.6094 672.766 57.7578V59.1992H664.539L664.504 59.2578C664.52 60.0703 664.66 60.793 664.926 61.4258C665.199 62.0508 665.59 62.543 666.098 62.9023C666.605 63.2617 667.215 63.4414 667.926 63.4414C668.707 63.4414 669.391 63.332 669.977 63.1133C670.57 62.8867 671.082 62.5781 671.512 62.1875L672.414 63.6875C671.961 64.125 671.359 64.4961 670.609 64.8008C669.867 65.0977 668.973 65.2461 667.926 65.2461ZM664.609 57.3945H670.457V57.0898C670.457 56.4805 670.348 55.9375 670.129 55.4609C669.918 54.9766 669.598 54.5977 669.168 54.3242C668.746 54.043 668.215 53.9023 667.574 53.9023C667.059 53.9023 666.59 54.0547 666.168 54.3594C665.746 54.6562 665.398 55.0625 665.125 55.5781C664.852 56.0938 664.672 56.6797 664.586 57.3359L664.609 57.3945ZM680.02 65.2461C678.988 65.2461 678.102 64.9922 677.359 64.4844C676.625 63.9688 676.062 63.2539 675.672 62.3398C675.281 61.4258 675.086 60.3594 675.086 59.1406V58.8945C675.086 57.5352 675.281 56.3438 675.672 55.3203C676.062 54.2969 676.629 53.5039 677.371 52.9414C678.113 52.3711 679.004 52.0859 680.043 52.0859C680.793 52.0859 681.453 52.2266 682.023 52.5078C682.602 52.7812 683.094 53.1797 683.5 53.7031V48.5352L681.59 48.207V46.7188H683.5H685.809V63.1953L687.719 63.5234V65H683.805L683.617 63.4883C683.203 64.0664 682.695 64.5039 682.094 64.8008C681.5 65.0977 680.809 65.2461 680.02 65.2461ZM680.605 63.3711C681.293 63.3711 681.871 63.2148 682.34 62.9023C682.809 62.5898 683.195 62.1484 683.5 61.5781V55.6953C683.203 55.1641 682.816 54.7422 682.34 54.4297C681.863 54.1172 681.293 53.9609 680.629 53.9609C679.895 53.9609 679.289 54.1719 678.812 54.5938C678.336 55.0078 677.98 55.5859 677.746 56.3281C677.512 57.0625 677.395 57.918 677.395 58.8945V59.1406C677.395 60.4141 677.656 61.4375 678.18 62.2109C678.703 62.9844 679.512 63.3711 680.605 63.3711ZM689.23 65V63.5234L691.141 63.1953V54.1367L689.23 53.8086V52.3203H693.449V63.1953L695.359 63.5234V65H689.23ZM691.023 49.1914V46.7188H693.449V49.1914H691.023ZM701.934 65.2461C700.902 65.2461 700.016 64.9922 699.273 64.4844C698.539 63.9688 697.977 63.2539 697.586 62.3398C697.195 61.4258 697 60.3594 697 59.1406V58.8945C697 57.5352 697.195 56.3438 697.586 55.3203C697.977 54.2969 698.543 53.5039 699.285 52.9414C700.027 52.3711 700.918 52.0859 701.957 52.0859C702.707 52.0859 703.367 52.2266 703.938 52.5078C704.516 52.7812 705.008 53.1797 705.414 53.7031V48.5352L703.504 48.207V46.7188H705.414H707.723V63.1953L709.633 63.5234V65H705.719L705.531 63.4883C705.117 64.0664 704.609 64.5039 704.008 64.8008C703.414 65.0977 702.723 65.2461 701.934 65.2461ZM702.52 63.3711C703.207 63.3711 703.785 63.2148 704.254 62.9023C704.723 62.5898 705.109 62.1484 705.414 61.5781V55.6953C705.117 55.1641 704.73 54.7422 704.254 54.4297C703.777 54.1172 703.207 53.9609 702.543 53.9609C701.809 53.9609 701.203 54.1719 700.727 54.5938C700.25 55.0078 699.895 55.5859 699.66 56.3281C699.426 57.0625 699.309 57.918 699.309 58.8945V59.1406C699.309 60.4141 699.57 61.4375 700.094 62.2109C700.617 62.9844 701.426 63.3711 702.52 63.3711ZM716.887 65.2461C715.715 65.2461 714.703 64.9727 713.852 64.4258C713.008 63.8711 712.355 63.1094 711.895 62.1406C711.434 61.1641 711.203 60.0508 711.203 58.8008V58.543C711.203 57.293 711.434 56.1836 711.895 55.2148C712.355 54.2383 713.008 53.4727 713.852 52.918C714.703 52.3633 715.707 52.0859 716.863 52.0859C718.035 52.0859 719.043 52.3633 719.887 52.918C720.738 53.4727 721.395 54.2344 721.855 55.2031C722.316 56.1719 722.547 57.2852 722.547 58.543V58.8008C722.547 60.0586 722.316 61.1758 721.855 62.1523C721.395 63.1211 720.742 63.8789 719.898 64.4258C719.055 64.9727 718.051 65.2461 716.887 65.2461ZM716.887 63.4414C717.621 63.4414 718.234 63.2422 718.727 62.8438C719.227 62.4375 719.602 61.8867 719.852 61.1914C720.109 60.4883 720.238 59.6914 720.238 58.8008V58.543C720.238 57.6523 720.109 56.8594 719.852 56.1641C719.602 55.4609 719.227 54.9102 718.727 54.5117C718.227 54.1055 717.605 53.9023 716.863 53.9023C716.129 53.9023 715.512 54.1055 715.012 54.5117C714.512 54.9102 714.137 55.4609 713.887 56.1641C713.637 56.8594 713.512 57.6523 713.512 58.543V58.8008C713.512 59.6914 713.637 60.4883 713.887 61.1914C714.137 61.8867 714.512 62.4375 715.012 62.8438C715.52 63.2422 716.145 63.4414 716.887 63.4414ZM734.406 65.2461C733.086 65.2461 732.082 64.9258 731.395 64.2852C730.707 63.6367 730.363 62.7266 730.363 61.5547C730.363 60.75 730.582 60.0508 731.02 59.457C731.465 58.8555 732.105 58.3906 732.941 58.0625C733.777 57.7266 734.777 57.5586 735.941 57.5586H738.203V56.3164C738.203 55.5508 737.969 54.957 737.5 54.5352C737.039 54.1133 736.387 53.9023 735.543 53.9023C735.012 53.9023 734.551 53.9688 734.16 54.1016C733.77 54.2266 733.414 54.4023 733.094 54.6289L732.848 56.3984H731.066V53.4922C731.637 53.0312 732.301 52.6836 733.059 52.4492C733.816 52.207 734.656 52.0859 735.578 52.0859C737.117 52.0859 738.324 52.4531 739.199 53.1875C740.074 53.9219 740.512 54.9727 740.512 56.3398V62.4453C740.512 62.6094 740.512 62.7695 740.512 62.9258C740.52 63.082 740.531 63.2383 740.547 63.3945L741.777 63.5234V65H738.461C738.391 64.6562 738.336 64.3477 738.297 64.0742C738.258 63.8008 738.23 63.5273 738.215 63.2539C737.77 63.8242 737.211 64.3008 736.539 64.6836C735.875 65.0586 735.164 65.2461 734.406 65.2461ZM734.746 63.3125C735.512 63.3125 736.211 63.1289 736.844 62.7617C737.477 62.3945 737.93 61.9531 738.203 61.4375V59.1406H735.859C734.797 59.1406 734 59.3945 733.469 59.9023C732.938 60.4102 732.672 60.9766 732.672 61.6016C732.672 62.1562 732.844 62.582 733.188 62.8789C733.531 63.168 734.051 63.3125 734.746 63.3125ZM743.453 65V63.5234L745.363 63.1953V48.5352L743.453 48.207V46.7188H747.672V63.1953L749.582 63.5234V65H743.453ZM762.262 65V63.0781L764.102 62.7266V60.957H757L756.859 59.3516L764.043 47.9375H767.277V58.7773H769.305V60.957H767.277V62.7266L769.117 63.0781V65H762.262ZM759.906 58.7773H764.102V52.2266L764.031 52.2031L763.762 52.7188L759.906 58.7773ZM773.922 65L774.086 63.2422C774.273 61.5391 774.594 59.9414 775.047 58.4492C775.508 56.957 776.105 55.543 776.84 54.207C777.582 52.8711 778.469 51.6016 779.5 50.3984H773.254L773.113 52.1445H770.629V47.9375H782.57V50.3984C781.633 51.5 780.855 52.5469 780.238 53.5391C779.621 54.5234 779.121 55.5117 778.738 56.5039C778.355 57.4961 778.051 58.5391 777.824 59.6328C777.605 60.7188 777.422 61.9219 777.273 63.2422L777.109 65H773.922ZM786.953 65L787.117 63.2422C787.305 61.5391 787.625 59.9414 788.078 58.4492C788.539 56.957 789.137 55.543 789.871 54.207C790.613 52.8711 791.5 51.6016 792.531 50.3984H786.285L786.145 52.1445H783.66V47.9375H795.602V50.3984C794.664 51.5 793.887 52.5469 793.27 53.5391C792.652 54.5234 792.152 55.5117 791.77 56.5039C791.387 57.4961 791.082 58.5391 790.855 59.6328C790.637 60.7188 790.453 61.9219 790.305 63.2422L790.141 65H786.953ZM799.984 65L800.148 63.2422C800.336 61.5391 800.656 59.9414 801.109 58.4492C801.57 56.957 802.168 55.543 802.902 54.207C803.645 52.8711 804.531 51.6016 805.562 50.3984H799.316L799.176 52.1445H796.691V47.9375H808.633V50.3984C807.695 51.5 806.918 52.5469 806.301 53.5391C805.684 54.5234 805.184 55.5117 804.801 56.5039C804.418 57.4961 804.113 58.5391 803.887 59.6328C803.668 60.7188 803.484 61.9219 803.336 63.2422L803.172 65H799.984ZM810.625 65V62.1289H813.801V65H810.625ZM821.043 65V63.0781L822.883 62.7266V60.957H815.781L815.641 59.3516L822.824 47.9375H826.059V58.7773H828.086V60.957H826.059V62.7266L827.898 63.0781V65H821.043ZM818.688 58.7773H822.883V52.2266L822.812 52.2031L822.543 52.7188L818.688 58.7773ZM835.68 65.2461C833.922 65.2461 832.527 64.6641 831.496 63.5C830.473 62.3281 829.961 60.625 829.961 58.3906V54.5586C829.961 52.3242 830.473 50.6211 831.496 49.4492C832.52 48.2773 833.906 47.6914 835.656 47.6914C837.406 47.6914 838.793 48.2773 839.816 49.4492C840.848 50.6211 841.363 52.3242 841.363 54.5586V58.3906C841.363 60.6328 840.852 62.3359 839.828 63.5C838.812 64.6641 837.43 65.2461 835.68 65.2461ZM835.68 62.7969C836.5 62.7969 837.121 62.4727 837.543 61.8242C837.973 61.168 838.188 60.1406 838.188 58.7422V54.1836C838.188 52.8008 837.969 51.7852 837.531 51.1367C837.102 50.4805 836.477 50.1523 835.656 50.1523C834.836 50.1523 834.211 50.4805 833.781 51.1367C833.352 51.7852 833.137 52.8008 833.137 54.1836V58.7422C833.137 60.1406 833.352 61.168 833.781 61.8242C834.219 62.4727 834.852 62.7969 835.68 62.7969ZM843.379 65V63.0781L846.203 62.7266V50.9141H843.344V49.0742L849.391 47.9375V62.7266L852.215 63.0781V65H843.379ZM858.824 65.2461C858.23 65.2461 857.617 65.1875 856.984 65.0703C856.359 64.9531 855.785 64.7773 855.262 64.543L855.648 62.2109C856.133 62.4062 856.633 62.5547 857.148 62.6562C857.664 62.75 858.184 62.7969 858.707 62.7969C859.73 62.7969 860.535 62.4414 861.121 61.7305C861.707 61.0117 862.008 59.8867 862.023 58.3555L862 58.1328C861.625 58.6328 861.168 59.0117 860.629 59.2695C860.09 59.5273 859.492 59.6562 858.836 59.6562C857.805 59.6562 856.906 59.4258 856.141 58.9648C855.375 58.4961 854.777 57.8242 854.348 56.9492C853.926 56.0664 853.715 55.0117 853.715 53.7852C853.715 52.6211 853.961 51.582 854.453 50.668C854.945 49.7461 855.617 49.0195 856.469 48.4883C857.32 47.957 858.285 47.6914 859.363 47.6914C860.527 47.6914 861.547 47.957 862.422 48.4883C863.305 49.0195 863.988 49.793 864.473 50.8086C864.957 51.8164 865.199 53.0469 865.199 54.5V58.0625C865.199 59.6016 864.93 60.9062 864.391 61.9766C863.852 63.0469 863.102 63.8594 862.141 64.4141C861.188 64.9688 860.082 65.2461 858.824 65.2461ZM859.422 57.3008C860.016 57.3008 860.535 57.1797 860.98 56.9375C861.426 56.6875 861.773 56.3594 862.023 55.9531V54.125C862.023 52.8203 861.789 51.832 861.32 51.1602C860.859 50.4883 860.215 50.1523 859.387 50.1523C858.902 50.1523 858.473 50.3125 858.098 50.6328C857.73 50.9531 857.438 51.3906 857.219 51.9453C857.008 52.4922 856.902 53.1055 856.902 53.7852C856.902 54.4961 856.996 55.1172 857.184 55.6484C857.379 56.1719 857.664 56.5781 858.039 56.8672C858.414 57.1562 858.875 57.3008 859.422 57.3008Z" fill="white"/>
</svg>
