<svg width="24" height="24" viewBox="0 0 24 24" fill="none" xmlns="http://www.w3.org/2000/svg">
<rect width="24" height="24" rx="12" fill="black"/>
<mask id="mask0_18_122" style="mask-type:alpha" maskUnits="userSpaceOnUse" x="0" y="0" width="24" height="24">
<rect width="24" height="24" fill="#D9D9D9"/>
</mask>
<g mask="url(#mask0_18_122)">
<path d="M6.82499 13L7.69999 13.925C7.88333 14.1084 7.97499 14.3375 7.97499 14.6125C7.97499 14.8875 7.88333 15.1167 7.69999 15.3C7.49999 15.5 7.26249 15.6 6.98749 15.6C6.71249 15.6 6.48333 15.5 6.29999 15.3L3.69999 12.725C3.59999 12.625 3.52499 12.5125 3.47499 12.3875C3.42499 12.2625 3.39999 12.1334 3.39999 12C3.39999 11.8667 3.42499 11.7417 3.47499 11.625C3.52499 11.5084 3.59999 11.4 3.69999 11.3L6.29999 8.70005C6.48333 8.51672 6.71249 8.42505 6.98749 8.42505C7.26249 8.42505 7.49999 8.51672 7.69999 8.70005C7.89999 8.90005 7.99999 9.13755 7.99999 9.41255C7.99999 9.68755 7.89999 9.92505 7.69999 10.125L6.82499 11H17.175L16.275 10.1C16.0917 9.91672 16 9.68755 16 9.41255C16 9.13755 16.1 8.90005 16.3 8.70005C16.4833 8.51672 16.7125 8.42505 16.9875 8.42505C17.2625 8.42505 17.5 8.51672 17.7 8.70005L20.275 11.3C20.375 11.4 20.45 11.5084 20.5 11.625C20.55 11.7417 20.575 11.8667 20.575 12C20.575 12.1334 20.55 12.2625 20.5 12.3875C20.45 12.5125 20.375 12.625 20.275 12.725L17.675 15.325C17.4917 15.5084 17.2625 15.6 16.9875 15.6C16.7125 15.6 16.475 15.5 16.275 15.3C16.0917 15.1167 16 14.8875 16 14.6125C16 14.3375 16.0917 14.1084 16.275 13.925L17.175 13H6.82499Z" fill="white"/>
</g>
</svg>
